<?xml version="1.0" encoding="UTF-8"?>
<svg width="411px" height="81px" viewBox="0 0 411 81" version="1.1" xmlns="http://www.w3.org/2000/svg" xmlns:xlink="http://www.w3.org/1999/xlink">
    <title>Group 32</title>
    <g id="Logo" stroke="none" stroke-width="1" fill="none" fill-rule="evenodd">
        <g id="A4-Copy-26" transform="translate(-8166.000000, -6618.000000)" fill="#000000">
            <g id="Group-32" transform="translate(8166.000000, 6618.000000)">
                <path d="M111.406,53 L111.406,41.24 L112.078,40.526 C114.262,38.174 115.732,37.124 116.782,37.124 C118,37.124 118.42,38.006 118.42,40.442 L118.42,53 L123.46,53 L123.46,41.282 C124.72,39.854 125.434,39.14 126.148,38.552 C127.24,37.628 128.248,37.124 128.878,37.124 C130.054,37.124 130.474,38.006 130.474,40.442 L130.474,53 L135.514,53 L135.514,38.636 C135.514,34.94 133.75,33.092 130.222,33.092 C127.66,33.092 125.434,34.352 123.292,36.914 C122.83,34.436 121.066,33.092 118.168,33.092 C115.69,33.092 113.758,34.142 111.406,36.704 L111.406,33.47 L106.366,33.47 L106.366,53 L111.406,53 Z M145.468,53.504 C147.442,53.504 149.08,52.79 150.928,51.11 C151.81,52.832 152.608,53.252 155.128,53.252 L156.178,53.252 L156.976,49.472 C155.632,49.346 155.422,49.052 155.422,47.288 L155.422,39.14 C155.422,34.856 153.322,32.924 148.66,32.924 C143.368,32.924 140.344,34.898 140.344,38.342 C140.344,38.888 140.386,39.098 140.596,39.686 L145.384,38.636 C145.3,38.384 145.258,38.3 145.258,38.132 C145.258,37.166 146.476,36.368 147.988,36.368 C149.626,36.368 150.382,37.334 150.382,39.434 L150.382,41.072 L144.838,42.668 C141.982,43.508 140.806,44.432 140.134,46.238 C139.924,46.868 139.798,47.54 139.798,48.212 C139.798,51.32 142.15,53.504 145.468,53.504 Z M147.022,49.598 C145.762,49.598 145.006,48.842 145.006,47.582 C145.006,47.078 145.09,46.7 145.384,45.944 L150.382,44.306 L150.382,48.128 C149.668,48.674 149.416,48.842 149.08,49.01 C148.408,49.388 147.652,49.598 147.022,49.598 Z M165.964,53 L165.964,42.962 L172.054,53 L177.766,53 L170.668,42.458 L177.682,33.47 L172.054,33.47 L165.964,41.912 L165.964,22.382 L160.966,22.382 L160.966,53 L165.964,53 Z M188.35,53.546 C190.618,53.546 192.718,53.084 194.776,52.16 C195.238,51.95 195.952,51.614 196.876,51.11 L195.028,47.288 C193.222,48.422 192.466,48.8 191.29,49.136 C190.492,49.388 189.736,49.472 188.98,49.472 C187.132,49.472 185.452,48.548 184.612,47.12 C184.15,46.322 184.024,45.65 183.94,44.012 L196.876,44.012 L196.876,41.87 C196.876,36.578 193.516,32.924 188.686,32.924 C183.1,32.924 178.9,37.586 178.9,43.76 C178.9,49.724 182.554,53.546 188.35,53.546 Z M191.836,40.862 L184.192,40.862 C184.612,38.216 186.124,36.704 188.35,36.704 C190.702,36.704 191.71,37.88 191.836,40.862 Z M204.436,53.546 C205.822,53.546 207.334,53.084 208.804,52.244 C209.35,51.908 209.98,51.53 210.652,51.11 L209.056,47.456 C207.67,48.38 206.956,48.674 206.368,48.674 C205.57,48.674 205.36,48.044 205.36,45.86 L205.36,37.166 L209.602,37.166 L209.602,33.47 L205.36,33.47 L205.36,27.632 L200.614,27.632 L200.614,33.47 L197.716,33.974 L197.716,37.166 L200.614,37.166 L200.614,49.304 C200.614,52.202 201.832,53.546 204.436,53.546 Z M218.59,53 L218.59,41.24 L219.262,40.526 C221.446,38.174 222.916,37.124 223.966,37.124 C225.184,37.124 225.604,38.006 225.604,40.442 L225.604,53 L230.644,53 L230.644,38.636 C230.644,34.94 228.88,33.092 225.352,33.092 C222.874,33.092 220.942,34.142 218.59,36.704 L218.59,22.382 L213.55,22.382 L213.55,53 L218.59,53 Z M238.666,29.858 C240.22,29.858 241.48,28.346 241.48,26.456 C241.48,24.566 240.22,23.054 238.666,23.054 C237.112,23.054 235.81,24.566 235.81,26.456 C235.81,28.346 237.112,29.858 238.666,29.858 Z M241.144,53 L241.144,33.47 L236.146,33.47 L236.146,53 L241.144,53 Z M251.854,53 L251.854,41.24 L252.526,40.526 C254.71,38.174 256.18,37.124 257.23,37.124 C258.448,37.124 258.868,38.006 258.868,40.442 L258.868,53 L263.908,53 L263.908,38.636 C263.908,34.94 262.144,33.092 258.616,33.092 C256.138,33.092 254.206,34.142 251.854,36.704 L251.854,33.47 L246.814,33.47 L246.814,53 L251.854,53 Z M275.752,63.206 C282.304,63.206 287.008,59.678 287.008,54.806 C287.008,51.656 285.202,50.102 281.38,50.102 L274.534,50.102 C273.568,50.102 273.232,49.976 273.232,49.556 C273.232,49.052 273.862,48.422 275.164,47.456 C275.794,47.582 276.088,47.582 276.592,47.582 C281.716,47.582 285.16,44.6 285.16,40.148 C285.16,38.888 284.95,38.216 284.278,37.25 L287.722,37.25 L287.722,33.47 L283.774,33.722 L280.876,33.722 C279.028,33.092 278.23,32.924 276.802,32.924 C271.636,32.924 268.444,35.78 268.444,40.442 C268.444,42.29 269.032,43.886 270.166,45.23 C270.628,45.776 271.006,46.07 271.888,46.742 C271.342,47.162 270.922,47.414 270.67,47.624 C268.78,48.884 268.108,49.766 268.108,50.9 C268.108,52.076 268.906,52.832 270.838,53.546 C268.57,55.478 267.73,56.78 267.73,58.292 C267.73,61.232 270.964,63.206 275.752,63.206 Z M276.802,43.802 C274.996,43.802 273.568,42.206 273.568,40.232 C273.568,38.216 274.996,36.536 276.76,36.536 C278.566,36.536 280.036,38.174 280.036,40.19 C280.036,42.206 278.608,43.802 276.802,43.802 Z M276.508,59.258 C274.198,59.258 272.392,58.292 272.392,57.074 C272.392,56.57 272.728,55.814 273.316,54.848 C273.442,54.722 273.568,54.47 273.736,54.176 L279.826,54.176 C281.506,54.176 282.304,54.596 282.304,55.394 C282.304,56.15 281.758,57.032 280.834,57.746 C279.658,58.712 278.02,59.258 276.508,59.258 Z M297.172,53.546 C301.876,53.546 304.984,51.194 304.984,47.624 C304.984,45.902 304.186,44.138 302.968,43.298 C302.086,42.626 299.272,41.366 297.088,40.61 C295.324,39.98 294.652,39.434 294.652,38.552 C294.652,37.46 295.912,36.704 297.844,36.704 C299.272,36.704 300.952,37.208 302.338,38.048 C302.716,38.258 303.178,38.552 303.682,38.888 L305.278,34.814 C303.514,33.806 302.842,33.554 300.994,33.176 C299.776,32.924 298.684,32.798 297.76,32.798 C293.014,32.798 289.822,35.276 289.822,38.93 C289.822,41.534 291.418,43.382 294.862,44.684 L298.222,45.986 C299.566,46.49 300.196,47.162 300.196,48.044 C300.196,49.094 299.062,49.724 297.13,49.724 C296.416,49.724 295.702,49.598 294.946,49.346 C293.518,48.884 292.72,48.506 290.746,47.288 L289.15,51.362 C291.292,52.454 292.174,52.79 293.98,53.168 C295.156,53.42 296.206,53.546 297.172,53.546 Z M313.636,53.546 C315.022,53.546 316.534,53.084 318.004,52.244 C318.55,51.908 319.18,51.53 319.852,51.11 L318.256,47.456 C316.87,48.38 316.156,48.674 315.568,48.674 C314.799556,48.674 314.576362,48.0898025 314.560883,46.0963185 L314.56,37.166 L318.802,37.166 L318.802,33.47 L314.56,33.47 L314.56,27.632 L309.814,27.632 L309.814,33.47 L306.916,33.974 L306.916,37.166 L309.814,37.166 L309.814,49.304 C309.814,52.202 311.032,53.546 313.636,53.546 Z M326.908,53.504 C328.882,53.504 330.52,52.79 332.368,51.11 C333.25,52.832 334.048,53.252 336.568,53.252 L337.618,53.252 L338.416,49.472 C337.121778,49.3506667 336.879111,49.0735473 336.862911,47.4780168 L336.862,39.14 C336.862,34.856 334.762,32.924 330.1,32.924 C324.808,32.924 321.784,34.898 321.784,38.342 C321.784,38.888 321.826,39.098 322.036,39.686 L326.824,38.636 C326.74,38.384 326.698,38.3 326.698,38.132 C326.698,37.166 327.916,36.368 329.428,36.368 C331.066,36.368 331.822,37.334 331.822,39.434 L331.822,41.072 L326.278,42.668 C323.422,43.508 322.246,44.432 321.574,46.238 C321.364,46.868 321.238,47.54 321.238,48.212 C321.238,51.32 323.59,53.504 326.908,53.504 Z M328.462,49.598 C327.202,49.598 326.446,48.842 326.446,47.582 C326.446,47.078 326.53,46.7 326.824,45.944 L331.822,44.306 L331.822,48.128 C331.108,48.674 330.856,48.842 330.52,49.01 C329.848,49.388 329.092,49.598 328.462,49.598 Z M347.278,53 L347.278,22.382 L342.28,22.382 L342.28,53 L347.278,53 Z M357.442,53 L357.442,42.962 L363.532,53 L369.244,53 L362.146,42.458 L369.16,33.47 L363.532,33.47 L357.442,41.912 L357.442,22.382 L352.444,22.382 L352.444,53 L357.442,53 Z M374.704,53.546 C376.552,53.546 378.022,52.034 378.022,50.186 C378.022,48.296 376.552,46.826 374.704,46.826 C372.856,46.826 371.344,48.296 371.344,50.186 C371.344,52.034 372.856,53.546 374.704,53.546 Z M385.162,29.858 C386.716,29.858 387.976,28.346 387.976,26.456 C387.976,24.566 386.716,23.054 385.162,23.054 C383.608,23.054 382.306,24.566 382.306,26.456 C382.306,28.346 383.608,29.858 385.162,29.858 Z M387.64,53 L387.64,33.47 L382.642,33.47 L382.642,53 L387.64,53 Z M401.164,53.546 C406.75,53.546 410.992,49.094 410.992,43.214 C410.992,37.376 406.75,32.924 401.164,32.924 C395.578,32.924 391.336,37.376 391.336,43.214 C391.336,49.094 395.578,53.546 401.164,53.546 Z M401.164,49.556 C398.644,49.556 396.544,46.7 396.544,43.214 C396.544,39.77 398.644,36.914 401.164,36.914 C403.684,36.914 405.784,39.77 405.784,43.214 C405.784,46.7 403.684,49.556 401.164,49.556 Z" id="makethingstalk.io" fill-rule="nonzero"></path>
                <path d="M40.5,0 C62.8675324,0 81,18.1324676 81,40.5 C81,62.8675324 62.8675324,81 40.5,81 C40.4626095,81 40.4252308,80.9999493 40.3878641,80.9998481 L2,81 C0.8954305,81 1.3527075e-16,80.1045695 0,79 L0,79 L0,40.5 L0.00542584289,39.8302584 C0.363072859,17.7716315 18.356143,0 40.5,0 Z" id="Combined-Shape"></path>
            </g>
        </g>
    </g>
</svg>