<?xml version="1.0" encoding="utf-8"?>
<!-- Generator: Adobe Illustrator 24.2.0, SVG Export Plug-In . SVG Version: 6.00 Build 0)  -->
<svg version="1.1" id="Layer_1" xmlns="http://www.w3.org/2000/svg" xmlns:xlink="http://www.w3.org/1999/xlink" x="0px" y="0px"
	 viewBox="0 0 411 81" style="enable-background:new 0 0 411 81;" xml:space="preserve">
<style type="text/css">
	.st0{fill-rule:evenodd;clip-rule:evenodd;}
	.st1{clip-path:url(#SVGID_2_);}
	.st2{clip-path:url(#SVGID_4_);}
</style>
<g id="Logo">
	<g id="A4-Copy-26" transform="translate(-8166.000000, -6618.000000)">
		<g id="Group-32" transform="translate(8166.000000, 6618.000000)">
			<path id="Combined-Shape" class="st0" d="M40.5,0C62.9,0,81,18.1,81,40.5S62.9,81,40.5,81c0,0-0.1,0-0.1,0L2,81c-1.1,0-2-0.9-2-2
				l0,0V40.5l0-0.7C0.4,17.8,18.4,0,40.5,0z"/>
			<g>
				<defs>
					<path id="SVGID_1_" d="M398.5,51.3V40.7l6.4,10.6h6l-7.5-11.1l7.4-9.5H405l-6.4,8.9V18.9h-5.3v32.4H398.5z M387.8,51.3V18.9
						h-5.3v32.4H387.8z M367.9,47.7c-1.3,0-2.1-0.8-2.1-2.1c0-0.5,0.1-0.9,0.4-1.7l5.3-1.7v4c-0.8,0.6-1,0.8-1.4,0.9
						C369.4,47.5,368.6,47.7,367.9,47.7z M366.3,51.8c2.1,0,3.8-0.8,5.8-2.5c0.9,1.8,1.8,2.3,4.4,2.3h1.1l0.8-4
						c-1.4-0.1-1.6-0.4-1.6-2.2l0-8.7c0-4.5-2.2-6.6-7.1-6.6c-5.6,0-8.8,2.1-8.8,5.7c0,0.6,0,0.8,0.3,1.4l5.1-1.1
						c-0.1-0.3-0.1-0.4-0.1-0.5c0-1,1.3-1.9,2.9-1.9c1.7,0,2.5,1,2.5,3.2v1.7l-5.9,1.7c-3,0.9-4.3,1.9-5,3.8
						c-0.2,0.7-0.4,1.4-0.4,2.1C360.3,49.5,362.8,51.8,366.3,51.8z M352.2,51.9c1.5,0,3.2-0.5,5-1.6l1.6-1l-1.7-3.9
						c-1.5,1-2.2,1.3-2.8,1.3c-0.8,0-1.1-0.6-1.1-2.8l0-9.3h4.5v-3.9h-4.5v-6.2h-5v6.2l-3.1,0.5v3.4h3.1v12.8
						C348.2,50.4,349.5,51.9,352.2,51.9z M323.7,51.9c5,0,8.3-2.5,8.3-6.3c0-1.8-0.8-3.6-2.1-4.6c-0.9-0.7-3.9-2-6.2-2.8
						c-1.9-0.7-2.6-1.2-2.6-2.2c0-1.2,1.3-2,3.4-2c1.5,0,3.3,0.5,4.7,1.4c0.4,0.2,0.9,0.5,1.4,0.9l1.7-4.3c-1.9-1.1-2.6-1.3-4.5-1.7
						c-1.3-0.3-2.4-0.4-3.4-0.4c-5,0-8.4,2.6-8.4,6.5c0,2.8,1.7,4.7,5.3,6.1l3.6,1.4c1.4,0.5,2.1,1.2,2.1,2.2c0,1.1-1.2,1.8-3.2,1.8
						c-0.8,0-1.5-0.1-2.3-0.4c-1.5-0.5-2.4-0.9-4.4-2.2l-1.7,4.3c2.3,1.2,3.2,1.5,5.1,1.9C321.6,51.7,322.7,51.9,323.7,51.9z
						 M301.9,57.9c-2.4,0-4.3-1-4.3-2.3c0-0.5,0.4-1.4,1-2.4l0.4-0.7h6.4c1.8,0,2.6,0.4,2.6,1.3c0,0.8-0.6,1.7-1.6,2.5
						C305.2,57.3,303.5,57.9,301.9,57.9z M302.2,41.6c-1.9,0-3.4-1.7-3.4-3.8c0-2.1,1.5-3.9,3.4-3.9c1.9,0,3.5,1.7,3.5,3.9
						C305.6,39.9,304.1,41.6,302.2,41.6z M301.1,62.1c6.9,0,11.9-3.7,11.9-8.9c0-3.3-1.9-5-5.9-5h-7.2c-1,0-1.4-0.1-1.4-0.6
						c0-0.5,0.7-1.2,2-2.2c0.7,0.1,1,0.1,1.5,0.1c5.4,0,9.1-3.2,9.1-7.9c0-1.3-0.2-2-0.9-3.1h3.6v-4l-4.2,0.3h-3.1
						c-2-0.7-2.8-0.8-4.3-0.8c-5.5,0-8.8,3-8.8,7.9c0,2,0.6,3.6,1.8,5.1c0.5,0.6,0.9,0.9,1.8,1.6l-1.2,0.8c-2.1,1.5-2.8,2.4-2.8,3.6
						c0,1.2,0.8,2,2.9,2.8c-2.4,2-3.3,3.4-3.3,5C292.6,60,296,62.1,301.1,62.1z M275.8,51.3V38.9l0.7-0.8c2.3-2.5,3.9-3.6,5-3.6
						c1.3,0,1.7,0.9,1.7,3.5v13.3h5.3V36.1c0-3.9-1.9-5.9-5.6-5.9c-2.6,0-4.7,1.1-7.1,3.8v-3.4h-5.3v20.6H275.8z M264.5,51.3V30.6
						h-5.3v20.6H264.5z M261.9,26.8c1.6,0,3-1.6,3-3.6s-1.3-3.6-3-3.6c-1.6,0-3,1.6-3,3.6S260.3,26.8,261.9,26.8z M240.7,51.3V38.9
						l0.7-0.8c2.3-2.5,3.9-3.6,5-3.6c1.3,0,1.7,0.9,1.7,3.5v13.3h5.3V36.1c0-3.9-1.9-5.9-5.6-5.9c-2.6,0-4.7,1.1-7.1,3.8V18.9h-5.3
						v32.4H240.7z M225.7,51.9c1.5,0,3.2-0.5,5-1.6l1.6-1l-1.7-3.9c-1.5,1-2.2,1.3-2.8,1.3c-0.8,0-1.1-0.6-1.1-2.8l0-9.3h4.5v-3.9
						h-4.5v-6.2h-5v6.2l-3.1,0.5v3.4h3.1v12.8C221.7,50.4,223,51.9,225.7,51.9z M201.3,38.5h-8.1c0.4-2.8,2-4.4,4.4-4.4
						C200.1,34.1,201.2,35.3,201.3,38.5z M197.6,51.9c2.4,0,4.6-0.5,6.8-1.5c0.5-0.2,1.2-0.6,2.2-1.1l-2-4c-1.9,1.2-2.7,1.6-4,2
						c-0.8,0.3-1.6,0.4-2.4,0.4c-2,0-3.7-1-4.6-2.5c-0.5-0.8-0.6-1.6-0.7-3.3h13.7v-2.3c0-5.6-3.6-9.5-8.7-9.5
						c-5.9,0-10.3,4.9-10.3,11.5C187.7,47.8,191.5,51.9,197.6,51.9z M174,51.3V40.7l6.4,10.6h6L179,40.1l7.4-9.5h-5.9l-6.4,8.9V18.9
						h-5.3v32.4H174z M154,47.7c-1.3,0-2.1-0.8-2.1-2.1c0-0.5,0.1-0.9,0.4-1.7l5.3-1.7v4c-0.8,0.6-1,0.8-1.4,0.9
						C155.4,47.5,154.6,47.7,154,47.7z M152.3,51.8c2.1,0,3.8-0.8,5.8-2.5c0.9,1.8,1.8,2.3,4.4,2.3h1.1l0.8-4
						c-1.4-0.1-1.6-0.4-1.6-2.3v-8.6c0-4.5-2.2-6.6-7.1-6.6c-5.6,0-8.8,2.1-8.8,5.7c0,0.6,0,0.8,0.3,1.4l5.1-1.1
						c-0.1-0.3-0.1-0.4-0.1-0.5c0-1,1.3-1.9,2.9-1.9c1.7,0,2.5,1,2.5,3.2v1.7l-5.9,1.7c-3,0.9-4.3,1.9-5,3.8
						c-0.2,0.7-0.4,1.4-0.4,2.1C146.3,49.5,148.8,51.8,152.3,51.8z M116.3,51.3V38.9l0.7-0.8c2.3-2.5,3.9-3.6,5-3.6
						c1.3,0,1.7,0.9,1.7,3.5v13.3h5.3V38.9c1.3-1.5,2.1-2.3,2.8-2.9c1.2-1,2.2-1.5,2.9-1.5c1.2,0,1.7,0.9,1.7,3.5v13.3h5.3V36.1
						c0-3.9-1.9-5.9-5.6-5.9c-2.7,0-5.1,1.3-7.3,4c-0.5-2.6-2.4-4-5.4-4c-2.6,0-4.7,1.1-7.1,3.8v-3.4H111v20.6H116.3z"/>
				</defs>
				<clipPath id="SVGID_2_">
					<use xlink:href="#SVGID_1_"  style="overflow:visible;"/>
				</clipPath>
				<g class="st1">
					<defs>
						<rect id="SVGID_3_" x="-4209.1" y="-3765.3" width="7375.4" height="4236.7"/>
					</defs>
					<clipPath id="SVGID_4_">
						<use xlink:href="#SVGID_3_"  style="overflow:visible;"/>
					</clipPath>
					<rect x="108.4" y="16.3" class="st2" width="305.3" height="48.4"/>
				</g>
			</g>
		</g>
	</g>
</g>
</svg>
