<?xml version="1.0" encoding="UTF-8"?>
<svg width="30px" height="23px" viewBox="0 0 30 23" version="1.1" xmlns="http://www.w3.org/2000/svg" xmlns:xlink="http://www.w3.org/1999/xlink">
    <!-- Generator: Sketch 64 (93537) - https://sketch.com -->
    <title>Group</title>
    <desc>Created with Sketch.</desc>
    <g id="Generative" stroke="none" stroke-width="1" fill="none" fill-rule="evenodd">
        <g id="v" transform="translate(-451.000000, -981.000000)" fill="#000000">
            <g id="Group" transform="translate(451.000000, 981.000000)">
                <path d="M2.67397787,8.53390801 C2.0616924,9.155364 1.07010801,9.155364 0.458617719,8.53390801 C-0.152872573,7.91245202 -0.152872573,6.90470739 0.458617719,6.2832514 C4.4702803,2.27085999 9.31926314,0 14.9992048,0 C20.6791465,0 25.5297197,2.27085999 29.5413823,6.2832514 C30.1528726,6.90470739 30.1528726,7.91245202 29.5413823,8.53390801 C28.929892,9.155364 27.9383076,9.155364 27.3260221,8.53390801 C23.9624279,5.11549599 19.7925253,3.1840528 14.9992048,3.1840528 C10.2535949,3.1840528 5.98827115,5.11711226 2.67397787,8.53390801 Z" id="Path" fill-rule="nonzero"></path>
                <path d="M6.66810597,13.5379002 C6.05777698,14.1540333 5.06807574,14.1540333 4.45774675,13.5379002 C3.84741775,12.9217672 3.84741775,11.9226543 4.45774675,11.3065213 C7.245101,8.55755859 10.562624,7 14.5,7 C18.4381697,7 21.7533117,8.55595616 24.5422533,11.3065213 C25.1525822,11.9226543 25.1525822,12.9217672 24.5422533,13.5379002 C23.9319243,14.1540333 22.942223,14.1540333 22.331894,13.5379002 C20.1905837,11.3762269 17.5532323,10.1567803 14.5,10.1567803 C11.493594,10.1567803 8.76259,11.3778293 6.66810597,13.5379002 L6.66810597,13.5379002 Z" id="Path" fill-rule="nonzero"></path>
                <path d="M11.6554141,17.5450601 C11.048169,18.1516466 10.0626789,18.1516466 9.45543382,17.5450601 C8.84818873,16.9384737 8.84818873,15.9548413 9.45543382,15.3482548 C11.0229,13.8495366 12.8004146,13 14.9996052,13 C17.1987958,13 18.9763103,13.8495366 20.5445662,15.3482548 C21.1518113,15.9548413 21.1518113,16.9384737 20.5445662,17.5450601 C19.9373211,18.1516466 18.951831,18.1516466 18.3445859,17.5450601 C17.4246373,16.6253204 16.3143816,16.1078683 14.9996052,16.1078683 C13.7235219,16.1078683 12.5366696,16.6276868 11.6554141,17.5450601 Z" id="Path" fill-rule="nonzero"></path>
                <path d="M14.9995902,20 C16.1051014,20 17,20.6711739 17,21.4996927 C17,22.3282114 16.1051014,23 14.9995902,23 C13.8957181,23 13,22.3282114 13,21.4996927 C13,20.6711739 13.8957181,20 14.9995902,20 Z" id="Path"></path>
            </g>
        </g>
    </g>
</svg>