<svg width="570" height="330" viewBox="0 0 570 330" fill="none" xmlns="http://www.w3.org/2000/svg">
<g filter="url(#filter0_dd)">
<path d="M85.3768 322.121C31.4818 291.008 31.4818 240.563 85.3768 209.449L187.868 150.281C241.763 119.167 329.144 119.167 383.039 150.281L485.53 209.449C539.425 240.563 539.425 291.008 485.53 322.121L383.039 381.289C329.144 412.403 241.763 412.403 187.868 381.289L85.3768 322.121Z" fill="url(#paint0_linear)"/>
</g>
<path d="M383.039 382.104L485.53 322.936C511.042 308.207 524.478 289.147 525.836 269.856V138.893L45.0699 145.466L45.0698 269.856C46.4281 289.147 59.8636 308.207 85.3765 322.936L187.867 382.104C241.762 413.218 329.144 413.218 383.039 382.104Z" fill="url(#paint1_linear)"/>
<path opacity="0.4" d="M85.3768 198.173C31.4818 167.059 31.4818 116.614 85.3768 85.5008L187.868 26.3327C241.763 -4.78084 329.144 -4.78083 383.039 26.3328L485.53 85.5008C539.425 116.614 539.425 167.059 485.53 198.173L383.039 257.341C329.144 288.455 241.763 288.455 187.868 257.341L85.3768 198.173Z" fill="#696969"/>
<path d="M85.3768 195.22C31.4818 164.107 31.4818 113.662 85.3768 82.5481L187.868 23.3801C241.763 -7.73348 329.144 -7.73346 383.039 23.3801L485.53 82.5481C539.425 113.662 539.425 164.107 485.53 195.22L383.039 254.388C329.144 285.502 241.763 285.502 187.868 254.388L85.3768 195.22Z" fill="url(#paint2_linear)"/>
<g filter="url(#filter1_i)">
<path d="M342.731 96.3476C311.128 78.1205 259.89 78.1205 228.287 96.3476C196.684 114.575 196.684 144.127 228.287 162.354L285.509 195.357L342.731 162.354C374.334 144.127 374.334 114.575 342.731 96.3476Z" fill="url(#paint3_linear)"/>
</g>
<defs>
<filter id="filter0_dd" x="0.955566" y="86.9458" width="568.995" height="365.679" filterUnits="userSpaceOnUse" color-interpolation-filters="sRGB">
<feFlood flood-opacity="0" result="BackgroundImageFix"/>
<feColorMatrix in="SourceAlpha" type="matrix" values="0 0 0 0 0 0 0 0 0 0 0 0 0 0 0 0 0 0 127 0"/>
<feOffset dy="4"/>
<feGaussianBlur stdDeviation="22"/>
<feColorMatrix type="matrix" values="0 0 0 0 0 0 0 0 0 0 0 0 0 0 0 0 0 0 0.35 0"/>
<feBlend mode="normal" in2="BackgroundImageFix" result="effect1_dropShadow"/>
<feColorMatrix in="SourceAlpha" type="matrix" values="0 0 0 0 0 0 0 0 0 0 0 0 0 0 0 0 0 0 127 0"/>
<feOffset dy="2"/>
<feGaussianBlur stdDeviation="7.5"/>
<feColorMatrix type="matrix" values="0 0 0 0 0 0 0 0 0 0 0 0 0 0 0 0 0 0 0.11 0"/>
<feBlend mode="normal" in2="effect1_dropShadow" result="effect2_dropShadow"/>
<feBlend mode="normal" in="SourceGraphic" in2="effect2_dropShadow" result="shape"/>
</filter>
<filter id="filter1_i" x="204.584" y="82.6772" width="161.849" height="112.68" filterUnits="userSpaceOnUse" color-interpolation-filters="sRGB">
<feFlood flood-opacity="0" result="BackgroundImageFix"/>
<feBlend mode="normal" in="SourceGraphic" in2="BackgroundImageFix" result="shape"/>
<feColorMatrix in="SourceAlpha" type="matrix" values="0 0 0 0 0 0 0 0 0 0 0 0 0 0 0 0 0 0 127 0" result="hardAlpha"/>
<feOffset dy="3"/>
<feComposite in2="hardAlpha" operator="arithmetic" k2="-1" k3="1"/>
<feColorMatrix type="matrix" values="0 0 0 0 0 0 0 0 0 0 0 0 0 0 0 0 0 0 0.25 0"/>
<feBlend mode="normal" in2="shape" result="effect1_innerShadow"/>
</filter>
<linearGradient id="paint0_linear" x1="381.387" y1="114.467" x2="441.373" y2="387.037" gradientUnits="userSpaceOnUse">
<stop stop-color="#D7D5D5"/>
<stop offset="1" stop-color="#F0F0F0"/>
</linearGradient>
<linearGradient id="paint1_linear" x1="46.0087" y1="232.792" x2="526.775" y2="230.914" gradientUnits="userSpaceOnUse">
<stop stop-color="#B8B8B8"/>
<stop offset="0.520833" stop-color="#E0E0E0"/>
<stop offset="1" stop-color="#B0B0B0"/>
</linearGradient>
<linearGradient id="paint2_linear" x1="381.387" y1="-12.4343" x2="441.373" y2="260.136" gradientUnits="userSpaceOnUse">
<stop stop-color="#D7D5D5"/>
<stop offset="1" stop-color="#F0F0F0"/>
</linearGradient>
<linearGradient id="paint3_linear" x1="228.287" y1="96.3475" x2="285.42" y2="195.408" gradientUnits="userSpaceOnUse">
<stop stop-color="#C3C1C1"/>
<stop offset="1" stop-color="#B9B6B6"/>
</linearGradient>
</defs>
</svg>
